<svg width="136" height="26" viewBox="0 0 136 26" fill="none" xmlns="http://www.w3.org/2000/svg">
<g clip-path="url(#clip0_7804_24819)">
<path d="M11.2732 0.655081L0.0516749 24.7182C-0.116353 25.077 0.145907 25.488 0.542134 25.488H12.857C13.2975 25.488 13.6971 25.2325 13.8833 24.8329L25.1048 0.769748C25.2728 0.410986 25.0106 0 24.6144 0H12.2995C11.859 0 11.4594 0.255447 11.2732 0.655081Z" fill="#192526"/>
<path d="M33.5527 14.7934C32.7829 14.6674 31.9927 14.6016 31.1889 14.6016C24.6052 14.6016 19.0364 18.9476 17.1927 24.9273C17.1007 25.2248 17.3255 25.5268 17.6366 25.5268H28.9024C29.1192 25.5268 29.3145 25.4007 29.4053 25.2055L33.9001 15.4474L33.8978 15.4451C34.0249 15.1681 33.8535 14.8434 33.5515 14.7934H33.5527Z" fill="#192526"/>
<path d="M43.2598 0H47.0392V25.5447H43.2598V0Z" fill="#192526"/>
<path d="M59.1143 22.5365C61.2135 22.5365 62.7882 21.5919 63.6283 20.3669L66.7425 22.1869C65.1326 24.5665 62.5078 26.0015 59.0791 26.0015C53.3048 26.0015 49.5605 22.0472 49.5605 16.7986C49.5605 11.55 53.3048 7.5957 58.7987 7.5957C64.2925 7.5957 67.5815 11.7953 67.5815 16.8338C67.5815 17.3583 67.5111 17.9192 67.4419 18.4085H53.5149C54.1098 21.1378 56.3146 22.5377 59.1143 22.5377V22.5365ZM63.768 15.3284C63.2434 12.3186 61.0387 11.0244 58.7635 11.0244C55.9286 11.0244 54.0042 12.7046 53.4797 15.3284H63.768Z" fill="#192526"/>
<path d="M86.0448 14.8021V25.5445H82.2653V15.1869C82.2653 12.528 80.7258 11.1282 78.3462 11.1282C75.9666 11.1282 73.9025 12.5973 73.9025 16.1667V25.5445H70.123V8.04804H73.5903L73.9025 10.5594C75.0572 8.73945 76.9463 7.59277 79.326 7.59277C83.2451 7.59277 86.0448 10.2528 86.0448 14.8009V14.8021Z" fill="#192526"/>
<path d="M107.016 0V25.5447H103.361L103.238 23.0255C101.908 24.8806 99.8433 26 97.114 26C92.3547 26 88.4004 21.9753 88.4004 16.7971C88.4004 11.6189 92.3547 7.59417 97.114 7.59417C99.8433 7.59417 101.908 8.71359 103.238 10.5335V0H107.017H107.016ZM103.237 16.7971C103.237 13.5433 100.857 11.1977 97.7078 11.1977C94.5584 11.1977 92.1787 13.5421 92.1787 16.7971C92.1787 20.0521 94.5584 22.3965 97.7078 22.3965C100.857 22.3965 103.237 20.0521 103.237 16.7971Z" fill="#192526"/>
<path d="M110.111 3.00956C110.111 1.68009 111.196 0.594727 112.526 0.594727C113.857 0.594727 114.941 1.68009 114.941 3.00956C114.941 4.33902 113.856 5.42438 112.526 5.42438C111.197 5.42438 110.111 4.30496 110.111 3.00956ZM110.636 8.04925H114.415V25.5457H110.636V8.04811V8.04925Z" fill="#192526"/>
<path d="M116.809 16.7976C116.809 11.5842 120.938 7.59473 126.047 7.59473C131.156 7.59473 135.285 11.5842 135.285 16.7976C135.285 22.011 131.191 26.0006 126.047 26.0006C120.903 26.0006 116.809 21.9758 116.809 16.7976ZM131.505 16.7976C131.505 13.6131 129.126 11.2686 126.047 11.2686C122.968 11.2686 120.588 13.6131 120.588 16.7976C120.588 19.9822 122.968 22.3267 126.047 22.3267C129.126 22.3267 131.505 19.9822 131.505 16.7976Z" fill="#192526"/>
</g>
<defs>
<clipPath id="clip0_7804_24819">
<rect width="135.286" height="26" fill="white"/>
</clipPath>
</defs>
</svg>
